<mxfile host="app.diagrams.net" agent="Mozilla/5.0 (Windows NT 10.0; Win64; x64) AppleWebKit/537.36 (KHTML, like Gecko) Chrome/136.0.0.0 Safari/537.36" version="27.0.5">
  <diagram id="C5RBs43oDa-KdzZeNtuy" name="Page-1">
    <mxGraphModel dx="947" dy="511" grid="1" gridSize="10" guides="1" tooltips="1" connect="1" arrows="1" fold="1" page="1" pageScale="1" pageWidth="827" pageHeight="1169" math="0" shadow="0">
      <root>
        <mxCell id="WIyWlLk6GJQsqaUBKTNV-0" />
        <mxCell id="WIyWlLk6GJQsqaUBKTNV-1" parent="WIyWlLk6GJQsqaUBKTNV-0" />
        <mxCell id="Bd-SAwONqRbQZrcRXREO-1" value="&lt;font style=&quot;font-size: 18px;&quot;&gt;&lt;b&gt;Alku&lt;/b&gt;&lt;/font&gt;" style="rounded=1;whiteSpace=wrap;html=1;" vertex="1" parent="WIyWlLk6GJQsqaUBKTNV-1">
          <mxGeometry x="354" y="40" width="120" height="60" as="geometry" />
        </mxCell>
        <mxCell id="Bd-SAwONqRbQZrcRXREO-2" value="" style="endArrow=classic;html=1;rounded=0;exitX=0.5;exitY=1;exitDx=0;exitDy=0;" edge="1" parent="WIyWlLk6GJQsqaUBKTNV-1" source="Bd-SAwONqRbQZrcRXREO-1">
          <mxGeometry width="50" height="50" relative="1" as="geometry">
            <mxPoint x="390" y="320" as="sourcePoint" />
            <mxPoint x="414" y="160" as="targetPoint" />
          </mxGeometry>
        </mxCell>
        <mxCell id="Bd-SAwONqRbQZrcRXREO-3" value="&lt;font style=&quot;font-size: 15px;&quot;&gt;&lt;b&gt;Alusta sana, arvaukset ja yritykset&lt;/b&gt;&lt;/font&gt;" style="rounded=0;whiteSpace=wrap;html=1;" vertex="1" parent="WIyWlLk6GJQsqaUBKTNV-1">
          <mxGeometry x="330" y="160" width="170" height="80" as="geometry" />
        </mxCell>
        <mxCell id="Bd-SAwONqRbQZrcRXREO-4" value="&lt;font style=&quot;font-size: 15px;&quot;&gt;&lt;b&gt;Toista kun yrityksiä jäljellä&lt;/b&gt;&lt;/font&gt;" style="rounded=0;whiteSpace=wrap;html=1;" vertex="1" parent="WIyWlLk6GJQsqaUBKTNV-1">
          <mxGeometry x="329" y="270" width="170" height="80" as="geometry" />
        </mxCell>
        <mxCell id="Bd-SAwONqRbQZrcRXREO-5" value="&lt;b&gt;&lt;font style=&quot;font-size: 15px;&quot;&gt;Pyydä kirjain&lt;/font&gt;&lt;/b&gt;" style="rounded=0;whiteSpace=wrap;html=1;" vertex="1" parent="WIyWlLk6GJQsqaUBKTNV-1">
          <mxGeometry x="329" y="370" width="170" height="80" as="geometry" />
        </mxCell>
        <mxCell id="Bd-SAwONqRbQZrcRXREO-6" value="&lt;span style=&quot;font-size: 15px;&quot;&gt;&lt;b&gt;Onko se kirjain&lt;/b&gt;&lt;/span&gt;&lt;div&gt;&lt;span style=&quot;font-size: 15px;&quot;&gt;&lt;b&gt;ja uusi&lt;/b&gt;&lt;/span&gt;&lt;/div&gt;" style="rhombus;whiteSpace=wrap;html=1;" vertex="1" parent="WIyWlLk6GJQsqaUBKTNV-1">
          <mxGeometry x="330" y="485" width="170" height="110" as="geometry" />
        </mxCell>
        <mxCell id="Bd-SAwONqRbQZrcRXREO-7" value="&lt;span style=&quot;font-size: 15px;&quot;&gt;&lt;b&gt;Ilmoita virhe, palaa alkuun&lt;/b&gt;&lt;/span&gt;" style="rounded=0;whiteSpace=wrap;html=1;" vertex="1" parent="WIyWlLk6GJQsqaUBKTNV-1">
          <mxGeometry x="560" y="495" width="180" height="90" as="geometry" />
        </mxCell>
        <mxCell id="Bd-SAwONqRbQZrcRXREO-24" value="" style="edgeStyle=orthogonalEdgeStyle;rounded=0;orthogonalLoop=1;jettySize=auto;html=1;" edge="1" parent="WIyWlLk6GJQsqaUBKTNV-1" source="Bd-SAwONqRbQZrcRXREO-9" target="Bd-SAwONqRbQZrcRXREO-19">
          <mxGeometry relative="1" as="geometry" />
        </mxCell>
        <mxCell id="Bd-SAwONqRbQZrcRXREO-25" value="" style="edgeStyle=orthogonalEdgeStyle;rounded=0;orthogonalLoop=1;jettySize=auto;html=1;" edge="1" parent="WIyWlLk6GJQsqaUBKTNV-1" source="Bd-SAwONqRbQZrcRXREO-9" target="Bd-SAwONqRbQZrcRXREO-18">
          <mxGeometry relative="1" as="geometry" />
        </mxCell>
        <mxCell id="Bd-SAwONqRbQZrcRXREO-9" value="&lt;b&gt;&lt;font style=&quot;font-size: 15px;&quot;&gt;Onko kirjain sanassa&lt;/font&gt;&lt;/b&gt;" style="rhombus;whiteSpace=wrap;html=1;" vertex="1" parent="WIyWlLk6GJQsqaUBKTNV-1">
          <mxGeometry x="330" y="630" width="170" height="90" as="geometry" />
        </mxCell>
        <mxCell id="Bd-SAwONqRbQZrcRXREO-11" value="" style="endArrow=classic;html=1;rounded=0;exitX=0.5;exitY=1;exitDx=0;exitDy=0;entryX=0.5;entryY=0;entryDx=0;entryDy=0;" edge="1" parent="WIyWlLk6GJQsqaUBKTNV-1" source="Bd-SAwONqRbQZrcRXREO-3" target="Bd-SAwONqRbQZrcRXREO-4">
          <mxGeometry width="50" height="50" relative="1" as="geometry">
            <mxPoint x="415.5" y="241.44" as="sourcePoint" />
            <mxPoint x="414" y="270" as="targetPoint" />
          </mxGeometry>
        </mxCell>
        <mxCell id="Bd-SAwONqRbQZrcRXREO-12" value="" style="endArrow=classic;html=1;rounded=0;exitX=0.5;exitY=1;exitDx=0;exitDy=0;entryX=0.5;entryY=0;entryDx=0;entryDy=0;" edge="1" parent="WIyWlLk6GJQsqaUBKTNV-1" source="Bd-SAwONqRbQZrcRXREO-4" target="Bd-SAwONqRbQZrcRXREO-5">
          <mxGeometry width="50" height="50" relative="1" as="geometry">
            <mxPoint x="210" y="350" as="sourcePoint" />
            <mxPoint x="260" y="300" as="targetPoint" />
          </mxGeometry>
        </mxCell>
        <mxCell id="Bd-SAwONqRbQZrcRXREO-13" value="" style="endArrow=classic;html=1;rounded=0;exitX=0.5;exitY=1;exitDx=0;exitDy=0;entryX=0.5;entryY=0;entryDx=0;entryDy=0;" edge="1" parent="WIyWlLk6GJQsqaUBKTNV-1" source="Bd-SAwONqRbQZrcRXREO-5" target="Bd-SAwONqRbQZrcRXREO-6">
          <mxGeometry width="50" height="50" relative="1" as="geometry">
            <mxPoint x="220" y="560" as="sourcePoint" />
            <mxPoint x="270" y="510" as="targetPoint" />
          </mxGeometry>
        </mxCell>
        <mxCell id="Bd-SAwONqRbQZrcRXREO-14" value="" style="endArrow=classic;html=1;rounded=0;entryX=0;entryY=0.5;entryDx=0;entryDy=0;exitX=1;exitY=0.5;exitDx=0;exitDy=0;" edge="1" parent="WIyWlLk6GJQsqaUBKTNV-1" source="Bd-SAwONqRbQZrcRXREO-6" target="Bd-SAwONqRbQZrcRXREO-7">
          <mxGeometry width="50" height="50" relative="1" as="geometry">
            <mxPoint x="510" y="540" as="sourcePoint" />
            <mxPoint x="540" y="490" as="targetPoint" />
          </mxGeometry>
        </mxCell>
        <mxCell id="Bd-SAwONqRbQZrcRXREO-16" value="" style="endArrow=classic;html=1;rounded=0;exitX=0.5;exitY=0;exitDx=0;exitDy=0;entryX=1;entryY=0.5;entryDx=0;entryDy=0;" edge="1" parent="WIyWlLk6GJQsqaUBKTNV-1" source="Bd-SAwONqRbQZrcRXREO-7" target="Bd-SAwONqRbQZrcRXREO-1">
          <mxGeometry width="50" height="50" relative="1" as="geometry">
            <mxPoint x="160" y="400" as="sourcePoint" />
            <mxPoint x="630" y="60" as="targetPoint" />
            <Array as="points">
              <mxPoint x="650" y="70" />
            </Array>
          </mxGeometry>
        </mxCell>
        <mxCell id="Bd-SAwONqRbQZrcRXREO-17" value="" style="endArrow=classic;html=1;rounded=0;exitX=0.5;exitY=1;exitDx=0;exitDy=0;entryX=0.5;entryY=0;entryDx=0;entryDy=0;" edge="1" parent="WIyWlLk6GJQsqaUBKTNV-1" source="Bd-SAwONqRbQZrcRXREO-6" target="Bd-SAwONqRbQZrcRXREO-9">
          <mxGeometry width="50" height="50" relative="1" as="geometry">
            <mxPoint x="160" y="560" as="sourcePoint" />
            <mxPoint x="210" y="510" as="targetPoint" />
          </mxGeometry>
        </mxCell>
        <mxCell id="Bd-SAwONqRbQZrcRXREO-35" style="edgeStyle=orthogonalEdgeStyle;rounded=0;orthogonalLoop=1;jettySize=auto;html=1;exitX=0.25;exitY=1;exitDx=0;exitDy=0;entryX=1;entryY=0.25;entryDx=0;entryDy=0;" edge="1" parent="WIyWlLk6GJQsqaUBKTNV-1" source="Bd-SAwONqRbQZrcRXREO-18" target="Bd-SAwONqRbQZrcRXREO-20">
          <mxGeometry relative="1" as="geometry" />
        </mxCell>
        <mxCell id="Bd-SAwONqRbQZrcRXREO-18" value="&lt;span style=&quot;font-size: 15px;&quot;&gt;&lt;b&gt;Vähennä yrityksiä&lt;/b&gt;&lt;/span&gt;" style="rounded=0;whiteSpace=wrap;html=1;" vertex="1" parent="WIyWlLk6GJQsqaUBKTNV-1">
          <mxGeometry x="560" y="630" width="180" height="90" as="geometry" />
        </mxCell>
        <mxCell id="Bd-SAwONqRbQZrcRXREO-34" style="edgeStyle=orthogonalEdgeStyle;rounded=0;orthogonalLoop=1;jettySize=auto;html=1;exitX=0.75;exitY=1;exitDx=0;exitDy=0;entryX=0;entryY=0.25;entryDx=0;entryDy=0;" edge="1" parent="WIyWlLk6GJQsqaUBKTNV-1" source="Bd-SAwONqRbQZrcRXREO-19" target="Bd-SAwONqRbQZrcRXREO-20">
          <mxGeometry relative="1" as="geometry" />
        </mxCell>
        <mxCell id="Bd-SAwONqRbQZrcRXREO-19" value="&lt;span style=&quot;font-size: 15px;&quot;&gt;&lt;b&gt;Ilmoita oikein&lt;/b&gt;&lt;/span&gt;" style="rounded=0;whiteSpace=wrap;html=1;" vertex="1" parent="WIyWlLk6GJQsqaUBKTNV-1">
          <mxGeometry x="100" y="630" width="180" height="90" as="geometry" />
        </mxCell>
        <mxCell id="Bd-SAwONqRbQZrcRXREO-37" value="" style="edgeStyle=orthogonalEdgeStyle;rounded=0;orthogonalLoop=1;jettySize=auto;html=1;" edge="1" parent="WIyWlLk6GJQsqaUBKTNV-1" source="Bd-SAwONqRbQZrcRXREO-20" target="Bd-SAwONqRbQZrcRXREO-26">
          <mxGeometry relative="1" as="geometry" />
        </mxCell>
        <mxCell id="Bd-SAwONqRbQZrcRXREO-20" value="&lt;span style=&quot;font-size: 15px;&quot;&gt;&lt;b&gt;Tulosta sana piilossa&lt;/b&gt;&lt;/span&gt;" style="rounded=0;whiteSpace=wrap;html=1;" vertex="1" parent="WIyWlLk6GJQsqaUBKTNV-1">
          <mxGeometry x="280" y="800" width="280" height="60" as="geometry" />
        </mxCell>
        <mxCell id="Bd-SAwONqRbQZrcRXREO-38" value="" style="edgeStyle=orthogonalEdgeStyle;rounded=0;orthogonalLoop=1;jettySize=auto;html=1;" edge="1" parent="WIyWlLk6GJQsqaUBKTNV-1" source="Bd-SAwONqRbQZrcRXREO-26" target="Bd-SAwONqRbQZrcRXREO-29">
          <mxGeometry relative="1" as="geometry" />
        </mxCell>
        <mxCell id="Bd-SAwONqRbQZrcRXREO-39" value="" style="edgeStyle=orthogonalEdgeStyle;rounded=0;orthogonalLoop=1;jettySize=auto;html=1;" edge="1" parent="WIyWlLk6GJQsqaUBKTNV-1" source="Bd-SAwONqRbQZrcRXREO-26" target="Bd-SAwONqRbQZrcRXREO-28">
          <mxGeometry relative="1" as="geometry" />
        </mxCell>
        <mxCell id="Bd-SAwONqRbQZrcRXREO-40" value="" style="edgeStyle=orthogonalEdgeStyle;rounded=0;orthogonalLoop=1;jettySize=auto;html=1;" edge="1" parent="WIyWlLk6GJQsqaUBKTNV-1" source="Bd-SAwONqRbQZrcRXREO-26" target="Bd-SAwONqRbQZrcRXREO-27">
          <mxGeometry relative="1" as="geometry" />
        </mxCell>
        <mxCell id="Bd-SAwONqRbQZrcRXREO-26" value="&lt;span style=&quot;font-size: 15px;&quot;&gt;&lt;b&gt;Onko sana valmis?&lt;/b&gt;&lt;/span&gt;" style="rhombus;whiteSpace=wrap;html=1;" vertex="1" parent="WIyWlLk6GJQsqaUBKTNV-1">
          <mxGeometry x="360" y="920" width="120" height="100" as="geometry" />
        </mxCell>
        <mxCell id="Bd-SAwONqRbQZrcRXREO-41" style="edgeStyle=orthogonalEdgeStyle;rounded=0;orthogonalLoop=1;jettySize=auto;html=1;exitX=0;exitY=0.5;exitDx=0;exitDy=0;entryX=0;entryY=0.5;entryDx=0;entryDy=0;" edge="1" parent="WIyWlLk6GJQsqaUBKTNV-1" source="Bd-SAwONqRbQZrcRXREO-27" target="Bd-SAwONqRbQZrcRXREO-1">
          <mxGeometry relative="1" as="geometry">
            <mxPoint x="50" y="70" as="targetPoint" />
            <Array as="points">
              <mxPoint x="40" y="970" />
              <mxPoint x="40" y="70" />
            </Array>
          </mxGeometry>
        </mxCell>
        <mxCell id="Bd-SAwONqRbQZrcRXREO-27" value="&lt;b&gt;&lt;font style=&quot;font-size: 15px;&quot;&gt;Takaisin alkuun&lt;/font&gt;&lt;/b&gt;" style="rounded=0;whiteSpace=wrap;html=1;" vertex="1" parent="WIyWlLk6GJQsqaUBKTNV-1">
          <mxGeometry x="130" y="940" width="120" height="60" as="geometry" />
        </mxCell>
        <mxCell id="Bd-SAwONqRbQZrcRXREO-28" value="&lt;b&gt;&lt;font style=&quot;font-size: 15px;&quot;&gt;Voitto&lt;/font&gt;&lt;/b&gt;" style="rounded=0;whiteSpace=wrap;html=1;" vertex="1" parent="WIyWlLk6GJQsqaUBKTNV-1">
          <mxGeometry x="590" y="940" width="120" height="60" as="geometry" />
        </mxCell>
        <mxCell id="Bd-SAwONqRbQZrcRXREO-29" value="&lt;span style=&quot;font-size: 15px;&quot;&gt;&lt;b&gt;Loppu&lt;/b&gt;&lt;/span&gt;" style="rounded=0;whiteSpace=wrap;html=1;" vertex="1" parent="WIyWlLk6GJQsqaUBKTNV-1">
          <mxGeometry x="360" y="1070" width="120" height="60" as="geometry" />
        </mxCell>
        <mxCell id="Bd-SAwONqRbQZrcRXREO-43" value="Ei" style="text;html=1;align=center;verticalAlign=middle;resizable=0;points=[];autosize=1;strokeColor=none;fillColor=none;" vertex="1" parent="WIyWlLk6GJQsqaUBKTNV-1">
          <mxGeometry x="515" y="498" width="30" height="30" as="geometry" />
        </mxCell>
        <mxCell id="Bd-SAwONqRbQZrcRXREO-44" value="Ei" style="text;html=1;align=center;verticalAlign=middle;resizable=0;points=[];autosize=1;strokeColor=none;fillColor=none;" vertex="1" parent="WIyWlLk6GJQsqaUBKTNV-1">
          <mxGeometry x="515" y="628" width="30" height="30" as="geometry" />
        </mxCell>
        <mxCell id="Bd-SAwONqRbQZrcRXREO-45" value="Kyllä" style="text;html=1;align=center;verticalAlign=middle;resizable=0;points=[];autosize=1;strokeColor=none;fillColor=none;" vertex="1" parent="WIyWlLk6GJQsqaUBKTNV-1">
          <mxGeometry x="415" y="608" width="50" height="30" as="geometry" />
        </mxCell>
        <mxCell id="Bd-SAwONqRbQZrcRXREO-46" value="Kyllä" style="text;html=1;align=center;verticalAlign=middle;resizable=0;points=[];autosize=1;strokeColor=none;fillColor=none;" vertex="1" parent="WIyWlLk6GJQsqaUBKTNV-1">
          <mxGeometry x="280" y="628" width="50" height="30" as="geometry" />
        </mxCell>
        <mxCell id="Bd-SAwONqRbQZrcRXREO-48" value="Ei" style="text;html=1;align=center;verticalAlign=middle;resizable=0;points=[];autosize=1;strokeColor=none;fillColor=none;" vertex="1" parent="WIyWlLk6GJQsqaUBKTNV-1">
          <mxGeometry x="285" y="928" width="30" height="30" as="geometry" />
        </mxCell>
        <mxCell id="Bd-SAwONqRbQZrcRXREO-49" value="Kyllä" style="text;html=1;align=center;verticalAlign=middle;resizable=0;points=[];autosize=1;strokeColor=none;fillColor=none;" vertex="1" parent="WIyWlLk6GJQsqaUBKTNV-1">
          <mxGeometry x="495" y="928" width="50" height="30" as="geometry" />
        </mxCell>
      </root>
    </mxGraphModel>
  </diagram>
</mxfile>
